{
  "accessors": [
    {
      "bufferView": 1,
      "componentType": 5126,
      "count": 16,
      "max": [
        4.81220006942749,
        6.894010066986084,
        0.0
      ],
      "min": [
        -4.783060073852539,
        -6.879439830780029,
        0.0
      ],
      "type": "VEC3"
    },
    {
      "bufferView": 1,
      "byteOffset": 192,
      "componentType": 5126,
      "count": 16,
      "max": [
        0.0,
        0.0,
        1.0
      ],
      "min": [
        0.0,
        0.0,
        -1.0
      ],
      "type": "VEC3"
    },
    {
      "bufferView": 0,
      "componentType": 5125,
      "count": 96,
      "type": "SCALAR"
    },
    {
      "bufferView": 1,
      "byteOffset": 384,
      "componentType": 5126,
      "count": 64,
      "max": [
        5.021599769592285,
        7.134399890899658,
        0.0
      ],
      "min": [
        -4.992459774017334,
        -7.148970127105713,
        -0.3175700008869171
      ],
      "type": "VEC3"
    },
    {
      "bufferView": 1,
      "byteOffset": 1152,
      "componentType": 5126,
      "count": 64,
      "max": [
        1.0,
        1.0,
        1.0
      ],
      "min": [
        -1.0,
        -1.0,
        -1.0
      ],
      "type": "VEC3"
    },
    {
      "bufferView": 0,
      "byteOffset": 384,
      "componentType": 5125,
      "count": 240,
      "type": "SCALAR"
    },
    {
      "bufferView": 1,
      "byteOffset": 1920,
      "componentType": 5126,
      "count": 887,
      "max": [
        3.1717300415039063,
        2.9607601165771484,
        0.6367999911308289
      ],
      "min": [
        -3.0192999839782715,
        0.6042900085449219,
        0.1425900012254715
      ],
      "type": "VEC3"
    },
    {
      "bufferView": 1,
      "byteOffset": 12564,
      "componentType": 5126,
      "count": 887,
      "max": [
        0.9998764395713806,
        0.9999301433563232,
        0.9999577403068542
      ],
      "min": [
        -0.9998356103897095,
        -0.9999301433563232,
        -0.7064839005470276
      ],
      "type": "VEC3"
    },
    {
      "bufferView": 0,
      "byteOffset": 1344,
      "componentType": 5125,
      "count": 3522,
      "type": "SCALAR"
    },
    {
      "bufferView": 1,
      "byteOffset": 23208,
      "componentType": 5126,
      "count": 192,
      "max": [
        1.0,
        1.0,
        -1.3854199647903442
      ],
      "min": [
        -1.0,
        -1.0,
        -2.2792398929595947
      ],
      "type": "VEC3"
    },
    {
      "bufferView": 1,
      "byteOffset": 25512,
      "componentType": 5126,
      "count": 192,
      "max": [
        0.9951844215393066,
        0.9951844215393066,
        1.0
      ],
      "min": [
        -0.9951844215393066,
        -0.9951844215393066,
        -1.0
      ],
      "type": "VEC3"
    },
    {
      "bufferView": 0,
      "byteOffset": 15432,
      "componentType": 5125,
      "count": 372,
      "type": "SCALAR"
    },
    {
      "bufferView": 1,
      "byteOffset": 27816,
      "componentType": 5126,
      "count": 10378,
      "max": [
        1.8831000328063965,
        0.5718799829483032,
        0.0
      ],
      "min": [
        -0.09083999693393707,
        -0.23064999282360077,
        -0.13162000477313995
      ],
      "type": "VEC3"
    },
    {
      "bufferView": 1,
      "byteOffset": 152352,
      "componentType": 5126,
      "count": 10378,
      "max": [
        1.0,
        1.0,
        1.0
      ],
      "min": [
        -0.999998927116394,
        -1.0,
        -1.0
      ],
      "type": "VEC3"
    },
    {
      "bufferView": 0,
      "byteOffset": 16920,
      "componentType": 5125,
      "count": 20724,
      "type": "SCALAR"
    },
    {
      "bufferView": 1,
      "byteOffset": 276888,
      "componentType": 5126,
      "count": 6474,
      "max": [
        2.74685001373291,
        0.5929399728775024,
        -0.08423999696969986
      ],
      "min": [
        0.040369998663663864,
        -0.038690000772476196,
        -0.23399999737739563
      ],
      "type": "VEC3"
    },
    {
      "bufferView": 1,
      "byteOffset": 354576,
      "componentType": 5126,
      "count": 6474,
      "max": [
        1.0,
        1.0,
        1.0
      ],
      "min": [
        -1.0,
        -0.999998927116394,
        -1.0
      ],
      "type": "VEC3"
    },
    {
      "bufferView": 0,
      "byteOffset": 99816,
      "componentType": 5125,
      "count": 12912,
      "type": "SCALAR"
    },
    {
      "bufferView": 1,
      "byteOffset": 432264,
      "componentType": 5126,
      "count": 174,
      "max": [
        2.210170030593872,
        2.0506999492645264,
        0.38043999671936035
      ],
      "min": [
        -2.082469940185547,
        1.4399100542068481,
        0.12549999356269836
      ],
      "type": "VEC3"
    },
    {
      "bufferView": 1,
      "byteOffset": 434352,
      "componentType": 5126,
      "count": 174,
      "max": [
        0.7988479137420654,
        0.7223266959190369,
        1.0
      ],
      "min": [
        -0.7988479137420654,
        -0.7224081158638,
        -0.7064594030380249
      ],
      "type": "VEC3"
    },
    {
      "bufferView": 0,
      "byteOffset": 151464,
      "componentType": 5125,
      "count": 672,
      "type": "SCALAR"
    },
    {
      "bufferView": 1,
      "byteOffset": 436440,
      "componentType": 5126,
      "count": 3910,
      "max": [
        5.38001012802124,
        1.221850037574768,
        -3.7520999908447266
      ],
      "min": [
        -0.6019099950790405,
        -0.0581899993121624,
        -4.154119968414307
      ],
      "type": "VEC3"
    },
    {
      "bufferView": 1,
      "byteOffset": 483360,
      "componentType": 5126,
      "count": 3910,
      "max": [
        1.0,
        1.0,
        1.0
      ],
      "min": [
        -1.0,
        -1.0,
        -1.0
      ],
      "type": "VEC3"
    },
    {
      "bufferView": 0,
      "byteOffset": 154152,
      "componentType": 5125,
      "count": 10920,
      "type": "SCALAR"
    }
  ],
  "asset": {
    "extras": {
      "author": "Ian Dowson (https://sketchfab.com/eonie316)",
      "license": "CC-BY-4.0 (http://creativecommons.org/licenses/by/4.0/)",
      "source": "https://sketchfab.com/3d-models/the-incredibles-poster-6b2cfd57f6554d7bb35edf0968298210",
      "title": "The Incredibles Poster"
    },
    "generator": "Sketchfab-12.66.0",
    "version": "2.0"
  },
  "bufferViews": [
    {
      "buffer": 0,
      "byteLength": 197832,
      "name": "floatBufferViews",
      "target": 34963
    },
    {
      "buffer": 0,
      "byteLength": 530280,
      "byteOffset": 197832,
      "byteStride": 12,
      "name": "floatBufferViews",
      "target": 34962
    }
  ],
  "buffers": [
    {
      "byteLength": 728112,
      "uri": "scene.bin"
    }
  ],
  "extensionsRequired": [
    "KHR_materials_pbrSpecularGlossiness"
  ],
  "extensionsUsed": [
    "KHR_materials_pbrSpecularGlossiness"
  ],
  "materials": [
    {
      "doubleSided": true,
      "extensions": {
        "KHR_materials_pbrSpecularGlossiness": {
          "diffuseFactor": [
            1.0,
            1.0,
            1.0,
            1.0
          ],
          "glossinessFactor": 1.0,
          "specularFactor": [
            0.0,
            0.0,
            0.0
          ]
        }
      },
      "name": "White"
    },
    {
      "doubleSided": true,
      "extensions": {
        "KHR_materials_pbrSpecularGlossiness": {
          "diffuseFactor": [
            0.0,
            0.0,
            0.0,
            1.0
          ],
          "glossinessFactor": 1.0,
          "specularFactor": [
            0.0,
            0.0,
            0.0
          ]
        }
      },
      "name": "Black"
    },
    {
      "doubleSided": true,
      "extensions": {
        "KHR_materials_pbrSpecularGlossiness": {
          "diffuseFactor": [
            0.9899636880863927,
            0.0013638390383831605,
            0.0013638390383831605,
            1.0
          ],
          "glossinessFactor": 1.0,
          "specularFactor": [
            0.0,
            0.0,
            0.0
          ]
        }
      },
      "name": "material"
    }
  ],
  "meshes": [
    {
      "name": "Frame_0",
      "primitives": [
        {
          "attributes": {
            "NORMAL": 1,
            "POSITION": 0
          },
          "indices": 2,
          "material": 0,
          "mode": 4
        }
      ]
    },
    {
      "name": "Frame_1",
      "primitives": [
        {
          "attributes": {
            "NORMAL": 4,
            "POSITION": 3
          },
          "indices": 5,
          "material": 2,
          "mode": 4
        }
      ]
    },
    {
      "name": "Mask Outer_0",
      "primitives": [
        {
          "attributes": {
            "NORMAL": 7,
            "POSITION": 6
          },
          "indices": 8,
          "material": 1,
          "mode": 4
        }
      ]
    },
    {
      "name": "Circle_0",
      "primitives": [
        {
          "attributes": {
            "NORMAL": 10,
            "POSITION": 9
          },
          "indices": 11,
          "material": 0,
          "mode": 4
        }
      ]
    },
    {
      "name": "disney_0",
      "primitives": [
        {
          "attributes": {
            "NORMAL": 13,
            "POSITION": 12
          },
          "indices": 14,
          "material": 0,
          "mode": 4
        }
      ]
    },
    {
      "name": "pixar_0",
      "primitives": [
        {
          "attributes": {
            "NORMAL": 16,
            "POSITION": 15
          },
          "indices": 17,
          "material": 0,
          "mode": 4
        }
      ]
    },
    {
      "name": "EYES_0",
      "primitives": [
        {
          "attributes": {
            "NORMAL": 19,
            "POSITION": 18
          },
          "indices": 20,
          "material": 0,
          "mode": 4
        }
      ]
    },
    {
      "name": "Text_0",
      "primitives": [
        {
          "attributes": {
            "NORMAL": 22,
            "POSITION": 21
          },
          "indices": 23,
          "material": 0,
          "mode": 4
        }
      ]
    }
  ],
  "nodes": [
    {
      "children": [
        1
      ],
      "matrix": [
        1.0,
        0.0,
        0.0,
        0.0,
        0.0,
        2.220446049250313e-16,
        -1.0,
        0.0,
        0.0,
        1.0,
        2.220446049250313e-16,
        0.0,
        0.0,
        0.0,
        0.0,
        1.0
      ],
      "name": "Sketchfab_model"
    },
    {
      "children": [
        2,
        5,
        7,
        9,
        11,
        13,
        15
      ],
      "name": "Root"
    },
    {
      "children": [
        3,
        4
      ],
      "matrix": [
        1.0,
        0.0,
        0.0,
        0.0,
        0.0,
        -0.0,
        1.0,
        0.0,
        0.0,
        -1.0,
        -0.0,
        0.0,
        0.0,
        0.0,
        0.0,
        1.0
      ],
      "name": "Frame"
    },
    {
      "mesh": 0,
      "name": "Frame_0"
    },
    {
      "mesh": 1,
      "name": "Frame_1"
    },
    {
      "children": [
        6
      ],
      "matrix": [
        1.0,
        0.0,
        0.0,
        0.0,
        0.0,
        -0.0,
        1.0,
        0.0,
        0.0,
        -1.0,
        -0.0,
        0.0,
        0.0,
        0.35689000000000004,
        0.0,
        1.0
      ],
      "name": "Mask Outer"
    },
    {
      "mesh": 2,
      "name": "Mask Outer_0"
    },
    {
      "children": [
        8
      ],
      "matrix": [
        0.06319000000000002,
        0.0,
        0.0,
        0.0,
        0.0,
        -0.0,
        0.06319000000000002,
        0.0,
        0.0,
        -0.06319000000000002,
        -0.0,
        0.0,
        0.11131,
        -0.15066000000000002,
        5.858709999999999,
        1.0
      ],
      "name": "Circle"
    },
    {
      "mesh": 3,
      "name": "Circle_0"
    },
    {
      "children": [
        10
      ],
      "matrix": [
        1.0813899999999999,
        0.0,
        0.0,
        0.0,
        0.0,
        -0.0,
        1.0813899999999999,
        0.0,
        0.0,
        -1.0813899999999999,
        -0.0,
        0.0,
        -2.1317399999999997,
        -0.09823000000000004,
        5.677499999999999,
        1.0
      ],
      "name": "disney"
    },
    {
      "mesh": 4,
      "name": "disney_0"
    },
    {
      "children": [
        12
      ],
      "matrix": [
        0.7087600000000001,
        0.0,
        0.0,
        0.0,
        0.0,
        -0.0,
        0.6034,
        0.0,
        0.0,
        -0.6034,
        -0.0,
        0.0,
        0.27606,
        -0.08366000000000003,
        5.693429999999999,
        1.0
      ],
      "name": "pixar"
    },
    {
      "mesh": 5,
      "name": "pixar_0"
    },
    {
      "children": [
        14
      ],
      "matrix": [
        1.0,
        0.0,
        0.0,
        0.0,
        0.0,
        -0.0,
        1.0,
        0.0,
        0.0,
        -1.0,
        -0.0,
        0.0,
        0.0,
        0.19526000000000004,
        0.0,
        1.0
      ],
      "name": "EYES"
    },
    {
      "mesh": 6,
      "name": "EYES_0"
    },
    {
      "children": [
        16
      ],
      "matrix": [
        1.0,
        0.0,
        0.0,
        0.0,
        0.0,
        -0.0,
        1.0,
        0.0,
        0.0,
        -1.0,
        -0.0,
        0.0,
        -2.33016,
        -4.08539,
        -4.7931799999999996,
        1.0
      ],
      "name": "Text"
    },
    {
      "mesh": 7,
      "name": "Text_0"
    }
  ],
  "scene": 0,
  "scenes": [
    {
      "name": "Sketchfab_Scene",
      "nodes": [
        0
      ]
    }
  ]
}
