{
  "accessors": [
    {
      "bufferView": 2,
      "componentType": 5126,
      "count": 300,
      "max": [
        126.6426773071289,
        326.7242431640625,
        301.1490478515625
      ],
      "min": [
        -126.6426773071289,
        28.312623977661133,
        -294.75079345703125
      ],
      "type": "VEC3"
    },
    {
      "bufferView": 2,
      "byteOffset": 3600,
      "componentType": 5126,
      "count": 300,
      "max": [
        1.0,
        1.0,
        1.0
      ],
      "min": [
        -1.0,
        -1.0,
        -1.0
      ],
      "type": "VEC3"
    },
    {
      "bufferView": 1,
      "componentType": 5126,
      "count": 300,
      "max": [
        0.9855706095695496,
        0.9627929925918579
      ],
      "min": [
        0.05005578696727753,
        0.04579305648803711
      ],
      "type": "VEC2"
    },
    {
      "bufferView": 0,
      "componentType": 5125,
      "count": 564,
      "type": "SCALAR"
    },
    {
      "bufferView": 2,
      "byteOffset": 7200,
      "componentType": 5126,
      "count": 122,
      "max": [
        28.783334732055664,
        15.317280769348145,
        28.783334732055664
      ],
      "min": [
        -28.783334732055664,
        -15.317280769348145,
        -28.783334732055664
      ],
      "type": "VEC3"
    },
    {
      "bufferView": 2,
      "byteOffset": 8664,
      "componentType": 5126,
      "count": 122,
      "max": [
        0.9626620411872864,
        1.0,
        0.9626619219779968
      ],
      "min": [
        -0.9626620411872864,
        -1.0,
        -0.9626619219779968
      ],
      "type": "VEC3"
    },
    {
      "bufferView": 1,
      "byteOffset": 2400,
      "componentType": 5126,
      "count": 122,
      "max": [
        0.7290012836456299,
        0.9594241380691528
      ],
      "min": [
        0.034084245562553406,
        0.6121057868003845
      ],
      "type": "VEC2"
    },
    {
      "bufferView": 0,
      "byteOffset": 2256,
      "componentType": 5125,
      "count": 288,
      "type": "SCALAR"
    },
    {
      "bufferView": 2,
      "byteOffset": 10128,
      "componentType": 5126,
      "count": 122,
      "max": [
        28.783334732055664,
        15.317280769348145,
        28.783334732055664
      ],
      "min": [
        -28.783334732055664,
        -15.317280769348145,
        -28.783334732055664
      ],
      "type": "VEC3"
    },
    {
      "bufferView": 2,
      "byteOffset": 11592,
      "componentType": 5126,
      "count": 122,
      "max": [
        0.9626620411872864,
        1.0,
        0.9626619219779968
      ],
      "min": [
        -0.9626620411872864,
        -1.0,
        -0.9626619219779968
      ],
      "type": "VEC3"
    },
    {
      "bufferView": 1,
      "byteOffset": 3376,
      "componentType": 5126,
      "count": 122,
      "max": [
        0.7290012836456299,
        0.9594241380691528
      ],
      "min": [
        0.034084245562553406,
        0.6121057868003845
      ],
      "type": "VEC2"
    },
    {
      "bufferView": 0,
      "byteOffset": 3408,
      "componentType": 5125,
      "count": 288,
      "type": "SCALAR"
    },
    {
      "bufferView": 2,
      "byteOffset": 13056,
      "componentType": 5126,
      "count": 122,
      "max": [
        28.783334732055664,
        15.317280769348145,
        28.783334732055664
      ],
      "min": [
        -28.783334732055664,
        -15.317280769348145,
        -28.783334732055664
      ],
      "type": "VEC3"
    },
    {
      "bufferView": 2,
      "byteOffset": 14520,
      "componentType": 5126,
      "count": 122,
      "max": [
        0.9626620411872864,
        1.0,
        0.9626619219779968
      ],
      "min": [
        -0.9626620411872864,
        -1.0,
        -0.9626619219779968
      ],
      "type": "VEC3"
    },
    {
      "bufferView": 1,
      "byteOffset": 4352,
      "componentType": 5126,
      "count": 122,
      "max": [
        0.7290012836456299,
        0.9594241380691528
      ],
      "min": [
        0.034084245562553406,
        0.6121057868003845
      ],
      "type": "VEC2"
    },
    {
      "bufferView": 0,
      "byteOffset": 4560,
      "componentType": 5125,
      "count": 288,
      "type": "SCALAR"
    },
    {
      "bufferView": 2,
      "byteOffset": 15984,
      "componentType": 5126,
      "count": 122,
      "max": [
        28.783334732055664,
        15.317280769348145,
        28.783334732055664
      ],
      "min": [
        -28.783334732055664,
        -15.317280769348145,
        -28.783334732055664
      ],
      "type": "VEC3"
    },
    {
      "bufferView": 2,
      "byteOffset": 17448,
      "componentType": 5126,
      "count": 122,
      "max": [
        0.9626620411872864,
        1.0,
        0.9626619219779968
      ],
      "min": [
        -0.9626620411872864,
        -1.0,
        -0.9626619219779968
      ],
      "type": "VEC3"
    },
    {
      "bufferView": 1,
      "byteOffset": 5328,
      "componentType": 5126,
      "count": 122,
      "max": [
        0.7290012836456299,
        0.9594241380691528
      ],
      "min": [
        0.034084245562553406,
        0.6121057868003845
      ],
      "type": "VEC2"
    },
    {
      "bufferView": 0,
      "byteOffset": 5712,
      "componentType": 5125,
      "count": 288,
      "type": "SCALAR"
    },
    {
      "bufferView": 2,
      "byteOffset": 18912,
      "componentType": 5126,
      "count": 122,
      "max": [
        28.783334732055664,
        15.317280769348145,
        28.783334732055664
      ],
      "min": [
        -28.783334732055664,
        -15.317280769348145,
        -28.783334732055664
      ],
      "type": "VEC3"
    },
    {
      "bufferView": 2,
      "byteOffset": 20376,
      "componentType": 5126,
      "count": 122,
      "max": [
        0.9626620411872864,
        1.0,
        0.9626619219779968
      ],
      "min": [
        -0.9626620411872864,
        -1.0,
        -0.9626619219779968
      ],
      "type": "VEC3"
    },
    {
      "bufferView": 1,
      "byteOffset": 6304,
      "componentType": 5126,
      "count": 122,
      "max": [
        0.47201135754585266,
        0.9584565162658691
      ],
      "min": [
        0.033096570521593094,
        0.6121057868003845
      ],
      "type": "VEC2"
    },
    {
      "bufferView": 0,
      "byteOffset": 6864,
      "componentType": 5125,
      "count": 288,
      "type": "SCALAR"
    },
    {
      "bufferView": 2,
      "byteOffset": 21840,
      "componentType": 5126,
      "count": 122,
      "max": [
        28.783334732055664,
        15.317280769348145,
        28.783334732055664
      ],
      "min": [
        -28.783334732055664,
        -15.317280769348145,
        -28.783334732055664
      ],
      "type": "VEC3"
    },
    {
      "bufferView": 2,
      "byteOffset": 23304,
      "componentType": 5126,
      "count": 122,
      "max": [
        0.9626620411872864,
        1.0,
        0.9626619219779968
      ],
      "min": [
        -0.9626620411872864,
        -1.0,
        -0.9626619219779968
      ],
      "type": "VEC3"
    },
    {
      "bufferView": 1,
      "byteOffset": 7280,
      "componentType": 5126,
      "count": 122,
      "max": [
        0.47201135754585266,
        0.9584565162658691
      ],
      "min": [
        0.033096570521593094,
        0.6121057868003845
      ],
      "type": "VEC2"
    },
    {
      "bufferView": 0,
      "byteOffset": 8016,
      "componentType": 5125,
      "count": 288,
      "type": "SCALAR"
    }
  ],
  "asset": {
    "extras": {
      "author": "Aditya Graphical (https://sketchfab.com/Adityakm)",
      "license": "CC-BY-4.0 (http://creativecommons.org/licenses/by/4.0/)",
      "source": "https://sketchfab.com/3d-models/low-poly-bus-30cf9f7983db48c9a8450ff34c403414",
      "title": "Low Poly Bus"
    },
    "generator": "Sketchfab-12.67.0",
    "version": "2.0"
  },
  "bufferViews": [
    {
      "buffer": 0,
      "byteLength": 9168,
      "name": "floatBufferViews",
      "target": 34963
    },
    {
      "buffer": 0,
      "byteLength": 8256,
      "byteOffset": 9168,
      "byteStride": 8,
      "name": "floatBufferViews",
      "target": 34962
    },
    {
      "buffer": 0,
      "byteLength": 24768,
      "byteOffset": 17424,
      "byteStride": 12,
      "name": "floatBufferViews",
      "target": 34962
    }
  ],
  "buffers": [
    {
      "byteLength": 42192,
      "uri": "scene.bin"
    }
  ],
  "images": [
    {
      "uri": "textures/Scene_-_Root_baseColor.png"
    }
  ],
  "materials": [
    {
      "doubleSided": true,
      "name": "Scene_-_Root",
      "pbrMetallicRoughness": {
        "baseColorTexture": {
          "index": 0
        },
        "metallicFactor": 0.0,
        "roughnessFactor": 0.6
      }
    }
  ],
  "meshes": [
    {
      "name": "bus__0",
      "primitives": [
        {
          "attributes": {
            "NORMAL": 1,
            "POSITION": 0,
            "TEXCOORD_0": 2
          },
          "indices": 3,
          "material": 0,
          "mode": 4
        }
      ]
    },
    {
      "name": "wheel__0",
      "primitives": [
        {
          "attributes": {
            "NORMAL": 5,
            "POSITION": 4,
            "TEXCOORD_0": 6
          },
          "indices": 7,
          "material": 0,
          "mode": 4
        }
      ]
    },
    {
      "name": "wheel_2__0",
      "primitives": [
        {
          "attributes": {
            "NORMAL": 9,
            "POSITION": 8,
            "TEXCOORD_0": 10
          },
          "indices": 11,
          "material": 0,
          "mode": 4
        }
      ]
    },
    {
      "name": "wheel_3__0",
      "primitives": [
        {
          "attributes": {
            "NORMAL": 13,
            "POSITION": 12,
            "TEXCOORD_0": 14
          },
          "indices": 15,
          "material": 0,
          "mode": 4
        }
      ]
    },
    {
      "name": "wheel_4__0",
      "primitives": [
        {
          "attributes": {
            "NORMAL": 17,
            "POSITION": 16,
            "TEXCOORD_0": 18
          },
          "indices": 19,
          "material": 0,
          "mode": 4
        }
      ]
    },
    {
      "name": "wheel_5__0",
      "primitives": [
        {
          "attributes": {
            "NORMAL": 21,
            "POSITION": 20,
            "TEXCOORD_0": 22
          },
          "indices": 23,
          "material": 0,
          "mode": 4
        }
      ]
    },
    {
      "name": "wheel_6__0",
      "primitives": [
        {
          "attributes": {
            "NORMAL": 25,
            "POSITION": 24,
            "TEXCOORD_0": 26
          },
          "indices": 27,
          "material": 0,
          "mode": 4
        }
      ]
    }
  ],
  "nodes": [
    {
      "children": [
        1
      ],
      "matrix": [
        1.0,
        0.0,
        0.0,
        0.0,
        0.0,
        2.220446049250313e-16,
        -1.0,
        0.0,
        0.0,
        1.0,
        2.220446049250313e-16,
        0.0,
        0.0,
        0.0,
        0.0,
        1.0
      ],
      "name": "Sketchfab_model"
    },
    {
      "children": [
        2
      ],
      "matrix": [
        0.009999999776482582,
        0.0,
        0.0,
        0.0,
        0.0,
        0.0,
        0.009999999776482582,
        0.0,
        0.0,
        -0.009999999776482582,
        0.0,
        0.0,
        0.0,
        0.0,
        0.0,
        1.0
      ],
      "name": "Low_Poly_Vehicles_bus.fbx"
    },
    {
      "children": [
        3
      ],
      "name": "RootNode"
    },
    {
      "children": [
        4,
        5,
        7,
        9,
        11,
        13,
        15
      ],
      "name": "bus"
    },
    {
      "mesh": 0,
      "name": "bus__0"
    },
    {
      "children": [
        6
      ],
      "matrix": [
        4.440892098500626e-16,
        -1.0,
        0.0,
        0.0,
        1.0,
        4.440892098500626e-16,
        0.0,
        0.0,
        0.0,
        0.0,
        1.0,
        0.0,
        -74.59546661376953,
        28.783334732055664,
        -164.046630859375,
        1.0
      ],
      "name": "wheel"
    },
    {
      "mesh": 1,
      "name": "wheel__0"
    },
    {
      "children": [
        8
      ],
      "matrix": [
        4.440892098500626e-16,
        -1.0,
        0.0,
        0.0,
        1.0,
        4.440892098500626e-16,
        0.0,
        0.0,
        0.0,
        0.0,
        1.0,
        0.0,
        -107.79879760742188,
        28.783334732055664,
        -164.046630859375,
        1.0
      ],
      "name": "wheel_2"
    },
    {
      "mesh": 2,
      "name": "wheel_2__0"
    },
    {
      "children": [
        10
      ],
      "matrix": [
        4.440892098500626e-16,
        -1.0,
        4.930380657631324e-32,
        0.0,
        -1.0,
        -4.440892098500626e-16,
        -1.224646799147353e-16,
        0.0,
        1.224646799147353e-16,
        1.232595164407831e-32,
        -1.0,
        0.0,
        73.58973693847656,
        28.783334732055664,
        -164.046630859375,
        1.0
      ],
      "name": "wheel_3"
    },
    {
      "mesh": 3,
      "name": "wheel_3__0"
    },
    {
      "children": [
        12
      ],
      "matrix": [
        4.440892098500626e-16,
        -1.0,
        4.930380657631324e-32,
        0.0,
        -1.0,
        -4.440892098500626e-16,
        -1.224646799147353e-16,
        0.0,
        1.224646799147353e-16,
        1.232595164407831e-32,
        -1.0,
        0.0,
        107.58240509033203,
        28.783334732055664,
        -164.046630859375,
        1.0
      ],
      "name": "wheel_4"
    },
    {
      "mesh": 4,
      "name": "wheel_4__0"
    },
    {
      "children": [
        14
      ],
      "matrix": [
        4.440892098500626e-16,
        -1.0,
        0.0,
        0.0,
        1.0,
        4.440892098500626e-16,
        0.0,
        0.0,
        0.0,
        0.0,
        1.0,
        0.0,
        -107.79879760742188,
        28.783334732055664,
        169.40606689453125,
        1.0
      ],
      "name": "wheel_5"
    },
    {
      "mesh": 5,
      "name": "wheel_5__0"
    },
    {
      "children": [
        16
      ],
      "matrix": [
        4.440892098500626e-16,
        -1.0,
        4.930380657631324e-32,
        0.0,
        -1.0,
        -4.440892098500626e-16,
        -1.224646799147353e-16,
        0.0,
        1.224646799147353e-16,
        1.232595164407831e-32,
        -1.0,
        0.0,
        107.58240509033203,
        28.783334732055664,
        169.40606689453125,
        1.0
      ],
      "name": "wheel_6"
    },
    {
      "mesh": 6,
      "name": "wheel_6__0"
    }
  ],
  "samplers": [
    {
      "magFilter": 9729,
      "minFilter": 9987,
      "wrapS": 10497,
      "wrapT": 10497
    }
  ],
  "scene": 0,
  "scenes": [
    {
      "name": "Sketchfab_Scene",
      "nodes": [
        0
      ]
    }
  ],
  "textures": [
    {
      "sampler": 0,
      "source": 0
    }
  ]
}
