{
  "accessors": [
    {
      "bufferView": 2,
      "componentType": 5126,
      "count": 272,
      "max": [
        2900.0,
        0.0,
        3650.0
      ],
      "min": [
        -2900.0,
        -3000.0,
        -3650.0
      ],
      "type": "VEC3"
    },
    {
      "bufferView": 2,
      "byteOffset": 3264,
      "componentType": 5126,
      "count": 272,
      "max": [
        1.0,
        1.0,
        1.0
      ],
      "min": [
        -1.0,
        -1.0,
        -1.0
      ],
      "type": "VEC3"
    },
    {
      "bufferView": 3,
      "componentType": 5126,
      "count": 272,
      "max": [
        1.0,
        1.0,
        1.0,
        1.0
      ],
      "min": [
        -1.0,
        -1.0,
        -1.0,
        1.0
      ],
      "type": "VEC4"
    },
    {
      "bufferView": 1,
      "componentType": 5126,
      "count": 272,
      "max": [
        0.9848138093948364,
        0.9971358776092529
      ],
      "min": [
        0.0028640502132475376,
        0.0028640502132475376
      ],
      "type": "VEC2"
    },
    {
      "bufferView": 0,
      "componentType": 5125,
      "count": 408,
      "type": "SCALAR"
    },
    {
      "bufferView": 2,
      "byteOffset": 6528,
      "componentType": 5126,
      "count": 4439,
      "max": [
        2702.652099609375,
        2.652130365371704,
        3512.498779296875
      ],
      "min": [
        -2702.652099609375,
        -1712.560302734375,
        -3512.419189453125
      ],
      "type": "VEC3"
    },
    {
      "bufferView": 2,
      "byteOffset": 59796,
      "componentType": 5126,
      "count": 4439,
      "max": [
        1.0,
        1.0,
        0.9999999403953552
      ],
      "min": [
        -1.0,
        -1.0,
        -0.9999999403953552
      ],
      "type": "VEC3"
    },
    {
      "bufferView": 1,
      "byteOffset": 2176,
      "componentType": 5126,
      "count": 4439,
      "max": [
        0.0,
        0.0
      ],
      "min": [
        0.0,
        0.0
      ],
      "type": "VEC2"
    },
    {
      "bufferView": 0,
      "byteOffset": 1632,
      "componentType": 5125,
      "count": 7917,
      "type": "SCALAR"
    }
  ],
  "asset": {
    "extras": {
      "author": "Plat (https://sketchfab.com/plat251)",
      "license": "CC-BY-4.0 (http://creativecommons.org/licenses/by/4.0/)",
      "source": "https://sketchfab.com/3d-models/picnic-table-8085f3b2f4e940059059364745046e9b",
      "title": "Picnic Table"
    },
    "generator": "Sketchfab-12.67.0",
    "version": "2.0"
  },
  "bufferViews": [
    {
      "buffer": 0,
      "byteLength": 33300,
      "name": "floatBufferViews",
      "target": 34963
    },
    {
      "buffer": 0,
      "byteLength": 37688,
      "byteOffset": 33300,
      "byteStride": 8,
      "name": "floatBufferViews",
      "target": 34962
    },
    {
      "buffer": 0,
      "byteLength": 113064,
      "byteOffset": 70988,
      "byteStride": 12,
      "name": "floatBufferViews",
      "target": 34962
    },
    {
      "buffer": 0,
      "byteLength": 4352,
      "byteOffset": 184052,
      "byteStride": 16,
      "name": "floatBufferViews",
      "target": 34962
    }
  ],
  "buffers": [
    {
      "byteLength": 188404,
      "uri": "scene.bin"
    }
  ],
  "extensionsRequired": [
    "KHR_materials_pbrSpecularGlossiness"
  ],
  "extensionsUsed": [
    "KHR_materials_pbrSpecularGlossiness"
  ],
  "images": [
    {
      "uri": "textures/Wood_diffuse.png"
    },
    {
      "uri": "textures/Wood_normal.png"
    },
    {
      "uri": "textures/Wood_occlusion.png"
    }
  ],
  "materials": [
    {
      "doubleSided": true,
      "extensions": {
        "KHR_materials_pbrSpecularGlossiness": {
          "diffuseFactor": [
            1.0,
            1.0,
            1.0,
            1.0
          ],
          "diffuseTexture": {
            "index": 0
          },
          "glossinessFactor": 0.1788854381999832,
          "specularFactor": [
            0.0,
            0.0,
            0.0
          ]
        }
      },
      "name": "Wood",
      "normalTexture": {
        "index": 1
      },
      "occlusionTexture": {
        "index": 2
      }
    },
    {
      "doubleSided": true,
      "extensions": {
        "KHR_materials_pbrSpecularGlossiness": {
          "diffuseFactor": [
            0.522522,
            0.522522,
            0.522522,
            1.0
          ],
          "glossinessFactor": 0.09634829617827188,
          "specularFactor": [
            0.0,
            0.0,
            0.0
          ]
        }
      },
      "name": "Metal"
    }
  ],
  "meshes": [
    {
      "name": "Table_low_Wood_0",
      "primitives": [
        {
          "attributes": {
            "NORMAL": 1,
            "POSITION": 0,
            "TANGENT": 2,
            "TEXCOORD_0": 3
          },
          "indices": 4,
          "material": 0,
          "mode": 4
        }
      ]
    },
    {
      "name": "Table_low_Metal_0",
      "primitives": [
        {
          "attributes": {
            "NORMAL": 6,
            "POSITION": 5,
            "TEXCOORD_0": 7
          },
          "indices": 8,
          "material": 1,
          "mode": 4
        }
      ]
    }
  ],
  "nodes": [
    {
      "children": [
        1
      ],
      "matrix": [
        1.0,
        0.0,
        0.0,
        0.0,
        0.0,
        2.220446049250313e-16,
        -1.0,
        0.0,
        0.0,
        1.0,
        2.220446049250313e-16,
        0.0,
        0.0,
        0.0,
        0.0,
        1.0
      ],
      "name": "Sketchfab_model"
    },
    {
      "children": [
        2
      ],
      "matrix": [
        1.0,
        0.0,
        0.0,
        0.0,
        0.0,
        0.0,
        1.0,
        0.0,
        0.0,
        -1.0,
        0.0,
        0.0,
        0.0,
        0.0,
        0.0,
        1.0
      ],
      "name": "table.fbx"
    },
    {
      "children": [
        3
      ],
      "name": "RootNode"
    },
    {
      "children": [
        4,
        5
      ],
      "matrix": [
        1.0,
        0.0,
        0.0,
        0.0,
        0.0,
        1.0,
        0.0,
        0.0,
        0.0,
        0.0,
        1.0,
        0.0,
        0.0,
        3000.0,
        0.0,
        1.0
      ],
      "name": "Table_low"
    },
    {
      "mesh": 0,
      "name": "Table_low_Wood_0"
    },
    {
      "mesh": 1,
      "name": "Table_low_Metal_0"
    }
  ],
  "samplers": [
    {
      "magFilter": 9729,
      "minFilter": 9987,
      "wrapS": 10497,
      "wrapT": 10497
    }
  ],
  "scene": 0,
  "scenes": [
    {
      "name": "Sketchfab_Scene",
      "nodes": [
        0
      ]
    }
  ],
  "textures": [
    {
      "sampler": 0,
      "source": 0
    },
    {
      "sampler": 0,
      "source": 1
    },
    {
      "sampler": 0,
      "source": 2
    }
  ]
}
